# Blender v2.91.2 OBJ File: 'stone.blend'
# www.blender.org
o Stone
v 0.003464 -1.936147 0.015665
v 0.662708 -0.883727 0.469610
v -0.290133 -0.905367 0.916096
v -0.856309 -0.885817 0.021736
v 0.696640 -0.880133 -0.481845
v -0.689061 0.861286 0.506498
v -0.625252 0.827553 -0.462867
v 0.266213 0.889060 -0.832283
v 0.043928 1.926000 0.013349
v -0.141171 -1.607257 0.448935
v 0.482748 -1.741572 0.338331
v 0.239743 -1.015287 0.763181
v 0.920766 -1.086463 0.002533
v -0.513154 -1.654280 0.012148
v -0.126825 -1.560593 -0.392238
v 0.242010 -0.997115 -0.705861
v 0.827055 -0.020837 -0.266705
v -0.001090 -0.005291 1.079798
v -0.844683 -0.012001 0.274927
v -0.459886 0.008432 -0.639471
v -0.735951 -0.004816 -0.224149
v 0.446941 -0.007104 -0.602973
v -0.000635 0.003206 -0.768644
v -0.269411 1.065434 0.899661
v -0.802786 0.993079 0.012610
v -0.248822 1.026127 -0.814495
v 0.690272 1.050890 -0.500282
v 0.198117 1.758212 0.583027
v 0.626392 1.796896 -0.000606
v -0.380593 1.595381 0.310898
v 0.199720 1.694358 -0.534576
v -0.059077 -1.868575 0.217856
v 0.623873 -1.358304 0.430969
v -0.049349 -0.992647 0.896421
v 0.829907 -1.033224 0.260151
v 0.582498 -1.253166 -0.401977
v -0.256838 -1.880720 0.002211
v -0.825411 -1.003210 0.238757
v -0.078667 -1.831647 -0.194245
v 0.489073 -0.973772 -0.628023
v 0.808346 0.450392 -0.146097
v -0.159893 -0.511438 1.045006
v 0.423384 0.481655 0.882886
v -0.892982 -0.497937 0.146364
v -0.703378 0.455928 -0.359973
v 0.131096 0.483461 -0.833864
v -0.516729 0.993933 0.714960
v -0.738236 0.939133 -0.243297
v 0.020721 1.005369 -0.883054
v 0.247225 1.370553 0.806383
v 0.339439 1.974301 0.008092
v -0.582436 1.261793 0.436922
v -0.517235 1.192024 -0.383215
v 0.247023 1.331268 -0.758585
v -0.239922 -1.281822 0.727547
v 0.239911 -1.927635 0.178647
v 0.859556 -1.015422 -0.273920
v 0.181732 -1.836278 -0.100964
v -0.743155 -1.308968 0.018807
v -0.486257 -1.006038 0.740709
v -0.151743 -1.193267 -0.519929
v -0.720275 -0.952346 -0.163787
v 0.803581 -0.502797 -0.389250
v 0.152093 0.492301 1.053382
v -0.796156 0.468780 0.400884
v -0.404542 -0.514444 0.866377
v -0.791775 0.965886 0.277286
v -0.472654 0.952717 -0.661738
v 0.490795 1.003847 -0.713916
v 0.124393 1.940249 0.291976
v 0.750309 1.356163 -0.008929
v -0.165340 1.824060 0.163315
v -0.141912 1.774813 -0.120669
v 0.125953 1.891289 -0.255868
v 0.452017 1.841584 -0.291612
v 0.702310 1.510469 -0.283977
v -0.041141 1.428817 -0.725194
v -0.629368 1.352178 0.152791
v -0.106226 1.757804 0.480894
v -0.050193 1.493677 0.791215
v 0.449120 1.871996 0.311336
v 0.663431 1.496146 0.262619
v 0.775320 0.525913 -0.392711
v 0.665199 0.006051 -0.449606
v -0.138587 0.537536 -0.844924
v -0.387218 0.532118 -0.772921
v -0.835919 0.003913 0.023044
v -0.867044 0.520156 0.148537
v -0.144358 0.552518 1.045013
v 0.602941 0.513286 0.638990
v 0.222258 -0.021550 -0.710923
v 0.929528 -0.577150 -0.145796
v 0.066431 -1.338404 -0.579594
v -0.333853 -1.686667 -0.206106
v -0.628867 -1.420140 0.251825
v 0.753470 -1.499284 0.184000
v 0.063795 -1.384990 0.633198
v 0.187228 -1.752271 0.412267
v 0.374271 -1.453653 0.563063
v 0.133077 -1.881983 0.274781
v 0.758747 -1.333079 0.293566
v -0.233786 -1.843942 0.147088
v -0.231783 -1.832021 -0.137164
v 0.068610 -1.784177 -0.222835
v -0.031901 -0.689857 0.997844
v -0.855430 -0.690108 0.265080
v 0.479179 -0.680073 -0.637790
v -0.277970 -0.343462 0.975267
v 0.401464 1.308768 0.710740
v -0.488732 1.246791 0.610114
v -0.630087 1.166979 -0.242705
v 0.069815 1.287253 -0.811405
v 0.761004 1.316080 -0.187372
v 0.313568 1.937274 -0.189167
v 0.566462 1.642458 -0.383278
v 0.421637 1.293348 -0.693391
v -0.034756 1.796141 -0.270239
v -0.139855 1.500390 -0.583493
v -0.432048 1.180624 -0.550636
v -0.233165 1.747433 0.022866
v -0.541682 1.439207 0.022578
v -0.682830 1.219875 0.284203
v -0.055018 1.867456 0.317032
v -0.169309 1.585439 0.650406
v 0.070079 1.333906 0.877117
v 0.316423 1.966178 0.213525
v 0.538801 1.652897 0.381916
v 0.798717 0.657416 -0.276355
v 0.491941 0.681903 -0.683882
v 0.001546 0.685169 -0.873755
v -0.265536 0.369210 -0.797470
v -0.486806 0.661660 -0.694758
v -0.838401 0.662451 0.276883
v -0.272801 0.376802 0.963432
v 0.002234 0.700707 1.051782
v 0.514850 0.667520 0.758323
v -0.633774 0.293833 -0.472434
v 0.294758 0.314968 0.988354
v 0.275585 -0.362695 0.927637
v 0.890765 -0.714227 -0.274213
v 0.461988 -1.210994 -0.535074
v 0.159907 -1.453589 -0.497309
v -0.018625 -1.178644 -0.602873
v -0.681095 -1.237077 -0.113530
v -0.750920 -1.275434 0.172268
v -0.480986 -1.525086 0.323839
v -0.395619 -1.246236 0.666161
v 0.731990 -1.248733 -0.267868
v 0.658869 -1.580829 0.048945
v 0.299160 -1.869298 0.051133
v -0.077393 -1.241079 0.761122
v 0.217659 -1.554853 0.539982
v 0.495433 -1.294632 0.550300
vt 1.077764 0.004829
vt 0.662459 0.041559
vt 0.573359 0.042330
vt 0.434388 0.031544
vt 0.659804 0.094632
vt 0.568410 0.070388
vt 0.440723 0.081609
vt 0.656895 0.218962
vt 0.659276 0.149741
vt 0.697989 0.163126
vt 0.708309 0.209029
vt 0.719737 0.142771
vt 0.757017 0.212835
vt 0.077764 0.004829
vt 0.312802 0.045284
vt 0.226877 0.045248
vt 0.150710 0.051319
vt 0.061533 0.042781
vt 0.240947 0.095846
vt 0.152067 0.077011
vt 0.051082 0.087788
vt 1.061533 0.042781
vt 0.969795 0.046340
vt 0.864284 0.036454
vt 0.571575 0.635707
vt 0.623473 0.658848
vt 0.596605 0.694305
vt 0.582961 0.824243
vt 0.546456 0.826190
vt 0.521039 0.628207
vt 0.545351 0.581248
vt 0.446093 0.243807
vt 0.487538 0.217775
vt 0.491751 0.288866
vt 0.472104 0.337749
vt 0.246242 0.237861
vt 0.286423 0.217840
vt 0.289749 0.279487
vt 0.268096 0.326515
vt 0.291922 0.475191
vt 1.027742 0.655759
vt 1.051762 0.607567
vt 1.073359 0.652914
vt 1.047988 0.762111
vt 0.999474 0.753769
vt 1.002800 0.691119
vt 0.745050 0.046193
vt 0.748370 0.118735
vt 0.143561 0.588179
vt 0.195898 0.475136
vt 0.168995 0.643026
vt 0.451157 0.376152
vt 0.424639 0.323798
vt 0.184015 0.819230
vt 0.244369 0.877471
vt 0.237645 0.952951
vt 0.123289 0.957954
vt 0.143035 0.827363
vt 0.451380 0.601563
vt 0.393143 0.763670
vt 0.342483 0.741901
vt 0.246396 0.479955
vt 0.026441 0.942590
vt 0.039241 0.866099
vt 0.103263 0.813685
vt 0.787242 0.643238
vt 0.811665 0.696707
vt 0.797709 0.823729
vt 0.761127 0.836142
vt 0.856089 0.159624
vt 0.815211 0.171105
vt 0.958985 0.112602
vt 0.895620 0.165932
vt 0.808056 0.471206
vt 0.829932 0.322155
vt 0.853407 0.479791
vt 0.987546 0.133765
vt 0.953637 0.202892
vt 0.902461 0.213707
vt 0.384079 0.818824
vt 0.342566 0.828805
vt 0.143993 0.740402
vt 0.192492 0.763802
vt 1.003590 0.478629
vt 1.008941 0.153312
vt 0.331785 0.110488
vt 0.406872 0.165826
vt 0.400516 0.216617
vt 0.276646 0.168410
vt 0.299862 0.137197
vt 0.955935 0.735749
vt 0.990290 0.806519
vt 0.955613 0.815593
vt 1.012169 0.837149
vt 0.951353 0.887292
vt 0.761219 0.892581
vt 0.820794 0.846841
vt 0.854327 0.905141
vt 0.855674 0.937196
vt 0.766894 0.946758
vt 0.944568 0.945457
vt 0.882942 0.993331
vt 0.854993 0.868521
vt 0.854641 0.235813
vt 0.905116 0.267153
vt 0.906579 0.473427
vt 0.509981 0.815330
vt 0.497567 0.680515
vt 0.920086 0.810059
vt 0.911028 0.759349
vt 0.097240 0.481163
vt 0.073359 0.652914
vt 0.051762 0.607567
vt 0.008941 0.153312
vt 0.046572 0.139705
vt 1.026441 0.942590
vt 1.123289 0.957954
vt 0.096811 0.756709
vt 0.095518 0.689236
vt 1.237645 0.952951
vt 1.342941 0.960671
vt 0.244228 0.770693
vt 0.294954 0.761865
vt 0.302905 0.819307
vt 0.276901 0.850617
vt 0.344416 0.903624
vt 0.456178 0.916639
vt 0.458827 0.950432
vt 0.342941 0.960671
vt 0.545121 0.363821
vt 0.497123 0.480684
vt 0.564310 0.954413
vt 0.269007 0.652370
vt 0.957792 0.467773
vt 0.551271 0.897053
vt 0.485617 0.846454
vt 0.661282 0.913028
vt 0.667203 0.943183
vt 0.658095 0.881655
vt 0.697688 0.859017
vt 0.832963 0.656579
vt 0.979511 0.642920
vt 0.442768 0.159188
vt 0.547567 0.195019
vt 0.595573 0.125907
vt 0.620133 0.151537
vt 0.047988 0.762111
vt 0.316041 0.637813
vt 0.292554 0.690364
vt 0.215062 0.160773
vt 0.206641 0.206565
vt 0.474502 0.644293
vt 0.907927 0.698541
vt 0.807197 0.222022
vt 1.039241 0.866099
vt 0.858046 0.772058
vt 0.782388 0.309500
vt 0.452520 0.874407
vt 0.448573 0.767234
vt 0.805363 0.279255
vt 1.051082 0.087788
vt 1.046572 0.139705
vt 0.245071 0.161752
vt 0.012169 0.837149
vt 0.512402 0.124061
vt 0.479073 0.162057
vt 0.560822 0.102196
vn -0.0283 -0.9903 -0.1358
vn 0.2689 -0.9506 0.1550
vn -0.0662 -0.8334 0.5487
vn -0.2571 -0.8343 0.4877
vn 0.5388 -0.7011 0.4671
vn 0.0205 -0.6589 0.7519
vn -0.2598 -0.6482 0.7158
vn 0.7385 -0.0791 0.6696
vn 0.6684 -0.2712 0.6926
vn 0.8124 -0.2396 0.5316
vn 0.8837 -0.0682 0.4631
vn 0.8435 -0.5132 0.1585
vn 0.9764 -0.2160 0.0023
vn -0.4332 -0.7946 0.4253
vn -0.4585 -0.8870 -0.0540
vn -0.3830 -0.7609 -0.5236
vn -0.0920 -0.7766 -0.6232
vn -0.7511 -0.6512 -0.1082
vn -0.5567 -0.5132 -0.6532
vn -0.3236 -0.4711 -0.8206
vn 0.1958 -0.7211 -0.6646
vn 0.3515 -0.7796 -0.5183
vn 0.6750 0.0516 0.7360
vn 0.8813 0.0421 0.4706
vn 0.7327 0.1256 0.6688
vn 0.6783 0.2642 0.6856
vn 0.4128 0.3735 0.8307
vn 0.2981 0.0892 0.9503
vn 0.5368 -0.0385 0.8428
vn -0.3616 -0.2839 0.8881
vn 0.1654 -0.3846 0.9081
vn 0.2274 -0.2479 0.9417
vn -0.1603 -0.1158 0.9802
vn -0.9540 -0.1427 -0.2637
vn -0.9169 -0.2222 0.3316
vn -0.9228 -0.0609 0.3804
vn -1.0000 0.0024 -0.0070
vn -0.9496 0.0023 0.3132
vn -0.1510 -0.0810 -0.9852
vn -0.3024 -0.1354 -0.9435
vn -0.5421 -0.0392 -0.8394
vn -0.4368 0.2401 -0.8669
vn -0.0156 0.1247 -0.9920
vn -0.0201 -0.0573 -0.9981
vn 0.4894 -0.8111 -0.3202
vn 0.6752 -0.6710 -0.3063
vn -0.8428 -0.0475 -0.5360
vn -0.8904 -0.0312 -0.4540
vn -0.9009 0.0151 -0.4336
vn -0.5784 -0.0080 0.8156
vn -0.7067 -0.0404 0.7063
vn -0.7759 0.4898 -0.3976
vn -0.7464 0.6302 -0.2138
vn -0.6548 0.7305 -0.1939
vn -0.6052 0.7351 -0.3053
vn -0.7418 0.5046 -0.4417
vn -0.5900 0.0244 0.8070
vn -0.7079 0.2139 0.6731
vn -0.8182 0.1454 0.5561
vn -0.9831 0.0192 -0.1818
vn -0.5127 0.7490 -0.4197
vn -0.5491 0.6299 -0.5493
vn -0.7109 0.4796 -0.5144
vn 0.9952 0.0589 0.0775
vn 0.9883 0.0721 -0.1346
vn 0.9832 0.1395 -0.1171
vn 0.9788 0.1602 0.1274
vn 0.5576 -0.5152 -0.6508
vn 0.6925 -0.5004 -0.5196
vn 0.2219 -0.5947 -0.7726
vn 0.4454 -0.4747 -0.7591
vn 0.8827 0.0771 -0.4634
vn 0.7564 0.0530 -0.6520
vn 0.6633 -0.0072 -0.7483
vn -0.0941 -0.4105 -0.9070
vn 0.0923 -0.2039 -0.9746
vn 0.4571 -0.2012 -0.8664
vn -0.6928 0.4498 0.5636
vn -0.7727 0.4699 0.4267
vn -0.8326 0.2008 -0.5162
vn -0.8791 0.2333 -0.4156
vn 0.0179 -0.1328 -0.9910
vn -0.3266 -0.2138 -0.9207
vn -0.5897 -0.6210 0.5163
vn -0.5514 -0.5032 0.6654
vn -0.6759 -0.2591 0.6899
vn -0.8700 -0.4190 0.2598
vn -0.7617 -0.5250 0.3797
vn 0.3395 0.0007 -0.9406
vn 0.0206 0.3460 -0.9380
vn 0.2803 0.3858 -0.8789
vn -0.2793 0.5416 -0.7928
vn 0.0360 0.6888 -0.7241
vn 0.7953 0.6062 0.0057
vn 0.8802 0.3234 -0.3473
vn 0.4507 0.7439 -0.4934
vn 0.1405 0.9337 -0.3294
vn 0.2103 0.9754 -0.0656
vn -0.2293 0.8760 -0.4242
vn -0.3469 0.9316 -0.1086
vn 0.6303 0.4899 -0.6022
vn 0.6597 -0.1276 -0.7406
vn 0.4392 0.0271 -0.8979
vn 0.5130 -0.0372 -0.8575
vn 0.0768 0.3432 0.9361
vn 0.0416 0.2083 0.9771
vn 0.5235 0.3234 -0.7882
vn 0.5843 0.0739 -0.8081
vn -0.6377 -0.1444 -0.7566
vn -0.5041 -0.2552 -0.8251
vn -0.7262 0.2518 -0.6397
vn -0.7460 0.0412 -0.6647
vn -0.5782 0.8148 0.0411
vn -0.9479 0.2814 -0.1493
vn -0.9263 0.2622 0.2704
vn -0.8540 0.4382 0.2802
vn -0.8281 0.5598 0.0302
vn -0.7025 0.6702 0.2391
vn -0.4487 0.7477 0.4894
vn -0.4215 0.8468 0.3243
vn 0.5234 -0.1332 0.8416
vn -0.0088 -0.0473 0.9988
vn -0.1455 0.9339 0.3264
vn -0.9988 0.0303 -0.0372
vn 0.3460 -0.0620 -0.9362
vn 0.1759 0.6891 0.7029
vn -0.2084 0.5363 0.8179
vn 0.5486 0.7104 0.4407
vn 0.1857 0.9584 0.2168
vn 0.7493 0.3821 0.5408
vn 0.9058 0.2281 0.3570
vn 0.8902 0.0005 -0.4555
vn 0.2390 -0.1339 -0.9617
vn -0.2324 -0.5786 0.7818
vn 0.3499 -0.3501 0.8689
vn 0.3377 -0.4030 0.8506
vn 0.5701 -0.2351 0.7872
vn -0.8838 0.0092 0.4677
vn -0.9565 0.1112 0.2697
vn -0.7093 -0.2913 -0.6419
vn -0.7261 -0.1901 -0.6607
vn -0.3206 0.0906 0.9428
vn 0.5838 -0.0993 -0.8058
vn 0.8379 -0.2582 -0.4809
vn 0.8333 0.1155 -0.5406
vn 0.9956 0.0522 -0.0769
vn -0.4946 0.6369 0.5914
vn -0.4429 0.2785 0.8522
vn 0.8904 -0.0422 -0.4531
vn -0.8766 -0.4202 -0.2343
vn 0.0750 -0.5190 0.8514
vn 0.1033 -0.5294 0.8420
vn 0.0657 -0.5104 0.8574
s 1
f 1/1/1 56/2/2 100/3/3 32/4/4
f 11/5/5 98/6/6 100/3/3 56/2/2
f 10/7/7 32/4/4 100/3/3 98/6/6
f 2/8/8 33/9/9 101/10/10 35/11/11
f 11/5/5 96/12/12 101/10/10 33/9/9
f 13/13/13 35/11/11 101/10/10 96/12/12
f 1/14/1 32/4/4 102/15/14 37/16/15
f 1/14/1 37/16/15 103/17/16 39/18/17
f 14/19/18 94/20/19 103/17/16 37/16/15
f 15/21/20 39/18/17 103/17/16 94/20/19
f 1/1/1 39/22/17 104/23/21 58/24/22
f 43/25/23 2/8/8 35/11/11 90/26/24 136/27/25
f 43/25/23 136/27/25 109/28/26 50/29/27 64/30/28 138/31/29
f 3/32/30 34/33/31 105/34/32 42/35/33
f 4/36/34 38/37/35 106/38/36 44/39/37
f 19/40/38 44/39/37 106/38/36
f 85/41/39 131/42/40 86/43/41 26/44/42 49/45/43 130/46/44
f 11/5/5 56/2/2 150/47/45 149/48/46 96/12/12
f 137/49/47 21/50/48 45/51/49
f 3/32/30 42/35/33 108/52/50 66/53/51
f 111/54/52 121/55/53 120/56/54 73/57/55 53/58/56
f 108/52/50 134/59/57 47/60/58 6/61/59 66/53/51
f 19/40/38 87/62/60 44/39/37
f 117/63/61 118/64/62 119/65/63 53/58/56 73/57/55
f 41/66/64 128/67/65 113/68/66 71/69/67
f 149/48/46 150/47/45 58/24/22 36/70/68 148/71/69
f 104/23/21 142/72/70 141/73/71 36/70/68 58/24/22
f 17/74/72 63/75/73 84/76/74
f 141/73/71 142/72/70 93/77/75 16/78/76 40/79/77
f 6/61/59 47/60/58 110/80/78 52/81/79
f 7/82/80 48/83/81 111/54/52 53/58/56
f 23/84/82 16/78/76 93/77/75 143/85/83 131/42/40 85/41/39
f 146/86/84 147/87/85 60/88/86 38/37/35 145/89/87 95/90/88
f 8/91/89 49/45/43 112/92/90 54/93/91
f 26/44/42 77/94/92 112/92/90 49/45/43
f 31/95/93 54/93/91 112/92/90 77/94/92
f 29/96/94 71/69/67 113/68/66 76/97/95
f 29/96/94 75/98/96 114/99/97 51/100/98
f 31/95/93 74/101/99 114/99/97 75/98/96
f 9/102/100 51/100/98 114/99/97 74/101/99
f 29/96/94 76/97/95 115/103/101 75/98/96
f 84/76/74 63/75/73 5/104/102 40/79/77 107/105/103 22/106/104
f 125/107/105 135/108/106 64/30/28 50/29/27
f 8/91/89 54/93/91 116/109/107 69/110/108
f 20/111/109 86/112/41 131/113/40 143/114/83 61/115/110
f 9/102/100 74/101/99 117/116/61 73/117/55
f 7/82/80 53/58/56 119/65/63 68/118/111
f 132/119/112 137/49/47 45/51/49 48/83/81 7/82/80 68/118/111
f 9/102/100 73/117/55 120/120/54 72/121/113
f 25/122/114 67/123/115 122/124/116 78/125/117
f 6/61/59 52/81/79 122/124/116 67/123/115
f 30/126/118 78/125/117 122/124/116 52/81/79
f 30/126/118 79/127/119 123/128/120 72/129/113
f 105/34/32 139/130/121 138/31/29 64/30/28 18/131/122 42/35/33
f 9/102/100 72/121/113 123/128/120 70/132/123
f 87/62/60 88/133/124 25/122/114 48/83/81 45/51/49 21/50/48 4/36/34 44/39/37
f 16/78/76 23/84/82 91/134/125 107/105/103 40/79/77
f 28/135/126 80/136/127 125/107/105 50/29/27
f 28/135/126 81/137/128 126/138/129 70/132/123
f 29/96/94 51/100/98 126/138/129 81/137/128
f 9/102/100 70/132/123 126/138/129 51/100/98
f 29/96/94 81/137/128 127/139/130 82/140/131
f 29/96/94 82/140/131 71/69/67
f 17/74/72 83/141/132 128/67/65 41/66/64
f 120/56/54 121/55/53 78/125/117 30/126/118 72/129/113
f 23/84/82 85/41/39 130/46/44 46/142/133
f 10/7/7 55/143/134 147/87/85 146/86/84 102/15/14 32/4/4
f 8/91/89 46/142/133 130/46/44 49/45/43
f 139/130/121 105/34/32 34/33/31 12/144/135 99/145/136 153/146/137
f 139/130/121 153/146/137 33/9/9 2/8/8 43/25/23 138/31/29
f 26/147/42 86/112/41 132/119/112 68/118/111
f 19/40/38 88/133/124 87/62/60
f 19/40/38 65/148/138 133/149/139 88/133/124
f 6/61/59 67/123/115 133/149/139 65/148/138
f 25/122/114 88/133/124 133/149/139 67/123/115
f 109/28/26 127/139/130 81/137/128 28/135/126 50/29/27
f 20/111/109 61/115/110 15/21/20 94/20/19 144/150/140 62/151/141
f 18/131/122 64/30/28 135/108/106 89/152/142
f 22/106/104 91/134/125 46/142/133 8/91/89 69/110/108 129/153/143
f 13/13/13 96/12/12 149/48/46 148/71/69 57/154/144
f 31/95/93 77/94/92 118/155/62 117/116/61 74/101/99
f 23/84/82 46/142/133 91/134/125
f 102/15/14 146/86/84 95/90/88 14/19/18 37/16/15
f 27/156/145 69/110/108 116/109/107 115/103/101 76/97/95
f 107/105/103 91/134/125 22/106/104
f 41/66/64 92/157/146 17/74/72
f 20/111/109 62/151/141 4/36/34 21/50/48 137/49/47 132/119/112 86/112/41
f 79/127/119 124/158/147 80/136/127 28/135/126 70/132/123 123/128/120
f 6/61/59 65/148/138 19/40/38 106/38/36 38/37/35 60/88/86 66/53/51
f 25/122/114 78/125/117 121/55/53 111/54/52 48/83/81
f 3/32/30 66/53/51 60/88/86
f 84/76/74 129/153/143 69/110/108 27/156/145 83/141/132 17/74/72
f 24/159/148 89/152/142 135/108/106 125/107/105 80/136/127
f 71/69/67 82/140/131 90/26/24 35/11/11 13/13/13 92/157/146 41/66/64
f 13/13/13 57/154/144 140/160/149 92/157/146
f 5/104/102 63/75/73 140/160/149 57/154/144
f 17/74/72 92/157/146 140/160/149 63/75/73
f 82/140/131 127/139/130 109/28/26 136/27/25 90/26/24
f 5/104/102 36/70/68 141/73/71 40/79/77
f 15/161/20 61/162/110 143/85/83 93/77/75
f 15/161/20 93/77/75 142/72/70 104/23/21 39/22/17
f 47/60/58 134/59/57 89/152/142 24/159/148
f 4/36/34 62/151/141 144/150/140 59/163/150
f 14/19/18 95/90/88 145/89/87 59/163/150
f 24/159/148 80/136/127 124/158/147 110/80/78 47/60/58
f 4/36/34 59/163/150 145/89/87 38/37/35
f 113/68/66 128/67/65 83/141/132 27/156/145 76/97/95
f 110/80/78 124/158/147 79/127/119 30/126/118 52/81/79
f 3/32/30 60/88/86 147/87/85 55/143/134
f 26/147/42 68/118/111 119/65/63 118/64/62 77/164/92
f 18/131/122 89/152/142 134/59/57 108/52/50 42/35/33
f 5/104/102 57/154/144 148/71/69 36/70/68
f 22/106/104 129/153/143 84/76/74
f 1/1/1 58/24/22 150/47/45 56/2/2
f 10/7/7 97/165/151 151/166/152 55/143/134
f 12/144/135 34/33/31 151/166/152 97/165/151
f 3/32/30 55/143/134 151/166/152 34/33/31
f 10/7/7 98/6/6 152/167/153 97/165/151
f 11/5/5 99/145/136 152/167/153 98/6/6
f 12/144/135 97/165/151 152/167/153 99/145/136
f 11/5/5 33/9/9 153/146/137 99/145/136
f 115/103/101 116/109/107 54/93/91 31/95/93 75/98/96
f 14/19/18 59/163/150 144/150/140 94/20/19
