# Blender v2.91.2 OBJ File: 'stone.blend'
# www.blender.org
mtllib stone.mtl
o Stone_ICO球.003
v 0.003464 -1.936147 0.015665
v 0.662708 -0.883727 0.469610
v -0.290133 -0.905367 0.916096
v -0.856309 -0.885817 0.021736
v 0.696640 -0.880133 -0.481845
v -0.689061 0.861286 0.506498
v -0.625252 0.827553 -0.462867
v 0.266213 0.889060 -0.832283
v 0.043928 1.926000 0.013349
v -0.141171 -1.607257 0.448935
v 0.482748 -1.741572 0.338331
v 0.239743 -1.015287 0.763181
v 0.920766 -1.086463 0.002533
v -0.513154 -1.654280 0.012148
v -0.126825 -1.560593 -0.392238
v 0.242010 -0.997115 -0.705861
v 0.827055 -0.020837 -0.266705
v -0.001090 -0.005291 1.079798
v -0.844683 -0.012001 0.274927
v -0.459886 0.008432 -0.639471
v -0.735951 -0.004816 -0.224149
v 0.446941 -0.007104 -0.602973
v -0.000635 0.003206 -0.768644
v -0.269411 1.065434 0.899661
v -0.802786 0.993079 0.012610
v -0.248822 1.026127 -0.814495
v 0.690272 1.050890 -0.500282
v 0.198117 1.758212 0.583027
v 0.626392 1.796896 -0.000606
v -0.380593 1.595381 0.310898
v 0.199720 1.694358 -0.534576
v -0.059077 -1.868575 0.217856
v 0.623873 -1.358304 0.430969
v -0.049349 -0.992647 0.896421
v 0.829907 -1.033224 0.260151
v 0.582498 -1.253166 -0.401977
v -0.256838 -1.880720 0.002211
v -0.825411 -1.003210 0.238757
v -0.078667 -1.831647 -0.194245
v 0.489073 -0.973772 -0.628023
v 0.808346 0.450392 -0.146097
v -0.159893 -0.511438 1.045006
v 0.423384 0.481655 0.882886
v -0.892982 -0.497937 0.146364
v -0.703378 0.455928 -0.359973
v 0.131096 0.483461 -0.833864
v -0.516729 0.993933 0.714960
v -0.738236 0.939133 -0.243297
v 0.020721 1.005369 -0.883054
v 0.247225 1.370553 0.806383
v 0.339439 1.974301 0.008092
v -0.582436 1.261793 0.436922
v -0.517235 1.192024 -0.383215
v 0.247023 1.331268 -0.758585
v -0.239922 -1.281822 0.727547
v 0.239911 -1.927635 0.178647
v 0.859556 -1.015422 -0.273920
v 0.181732 -1.836278 -0.100964
v -0.743155 -1.308968 0.018807
v -0.486257 -1.006038 0.740709
v -0.151743 -1.193267 -0.519929
v -0.720275 -0.952346 -0.163787
v 0.803581 -0.502797 -0.389250
v 0.152093 0.492301 1.053382
v -0.796156 0.468780 0.400884
v -0.404542 -0.514444 0.866377
v -0.791775 0.965886 0.277286
v -0.472654 0.952717 -0.661738
v 0.490795 1.003847 -0.713916
v 0.124393 1.940249 0.291976
v 0.750309 1.356163 -0.008929
v -0.165340 1.824060 0.163315
v -0.141912 1.774813 -0.120669
v 0.125953 1.891289 -0.255868
v 0.452017 1.841584 -0.291612
v 0.702310 1.510469 -0.283977
v -0.041141 1.428817 -0.725194
v -0.629368 1.352178 0.152791
v -0.106226 1.757804 0.480894
v -0.050193 1.493677 0.791215
v 0.449120 1.871996 0.311336
v 0.663431 1.496146 0.262619
v 0.775320 0.525913 -0.392711
v 0.665199 0.006051 -0.449606
v -0.138587 0.537536 -0.844924
v -0.387218 0.532118 -0.772921
v -0.835919 0.003913 0.023044
v -0.867044 0.520156 0.148537
v -0.144358 0.552518 1.045013
v 0.602941 0.513286 0.638990
v 0.222258 -0.021550 -0.710923
v 0.929528 -0.577150 -0.145796
v 0.066431 -1.338404 -0.579594
v -0.333853 -1.686667 -0.206106
v -0.628867 -1.420140 0.251825
v 0.753470 -1.499284 0.184000
v 0.063795 -1.384990 0.633198
v 0.187228 -1.752271 0.412267
v 0.374271 -1.453653 0.563063
v 0.133077 -1.881983 0.274781
v 0.758747 -1.333079 0.293566
v -0.233786 -1.843942 0.147088
v -0.231783 -1.832021 -0.137164
v 0.068610 -1.784177 -0.222835
v -0.031901 -0.689857 0.997844
v -0.855430 -0.690108 0.265080
v 0.479179 -0.680073 -0.637790
v -0.277970 -0.343462 0.975267
v 0.401464 1.308768 0.710740
v -0.488732 1.246791 0.610114
v -0.630087 1.166979 -0.242705
v 0.069815 1.287253 -0.811405
v 0.761004 1.316080 -0.187372
v 0.313568 1.937274 -0.189167
v 0.566462 1.642458 -0.383278
v 0.421637 1.293348 -0.693391
v -0.034756 1.796141 -0.270239
v -0.139855 1.500390 -0.583493
v -0.432048 1.180624 -0.550636
v -0.233165 1.747433 0.022866
v -0.541682 1.439207 0.022578
v -0.682830 1.219875 0.284203
v -0.055018 1.867456 0.317032
v -0.169309 1.585439 0.650406
v 0.070079 1.333906 0.877117
v 0.316423 1.966178 0.213525
v 0.538801 1.652897 0.381916
v 0.798717 0.657416 -0.276355
v 0.491941 0.681903 -0.683882
v 0.001546 0.685169 -0.873755
v -0.265536 0.369210 -0.797470
v -0.486806 0.661660 -0.694758
v -0.838401 0.662451 0.276883
v -0.272801 0.376802 0.963432
v 0.002234 0.700707 1.051782
v 0.514850 0.667520 0.758323
v -0.633774 0.293833 -0.472434
v 0.294758 0.314968 0.988354
v 0.275585 -0.362695 0.927637
v 0.890765 -0.714227 -0.274213
v 0.461988 -1.210994 -0.535074
v 0.159907 -1.453589 -0.497309
v -0.018625 -1.178644 -0.602873
v -0.681095 -1.237077 -0.113530
v -0.750920 -1.275434 0.172268
v -0.480986 -1.525086 0.323839
v -0.395619 -1.246236 0.666161
v 0.731990 -1.248733 -0.267868
v 0.658869 -1.580829 0.048945
v 0.299160 -1.869298 0.051133
v -0.077393 -1.241079 0.761122
v 0.217659 -1.554853 0.539982
v 0.495433 -1.294632 0.550300
vt 0.577762 -0.496949
vt 1.162459 -0.492693
vt 1.073359 -0.469867
vt 0.934388 -0.463163
vt 0.159804 -0.399662
vt 0.068410 -0.405011
vt 0.073359 -0.469867
vt 0.162459 -0.492693
vt 0.940723 -0.332504
vt 1.068410 -0.405011
vt 0.156895 0.029261
vt 0.159276 -0.208028
vt 0.197989 -0.195415
vt 0.208309 -0.045488
vt 0.219737 -0.278518
vt 0.257017 -0.072108
vt 0.812802 -0.450847
vt 0.726877 -0.469236
vt 0.650709 -0.444886
vt 0.561533 -0.444700
vt 0.740947 -0.356016
vt 0.652067 -0.372210
vt 0.551082 -0.309172
vt 0.469794 -0.420964
vt 0.364284 -0.447015
vt 0.071575 0.711952
vt 0.123473 0.727767
vt 0.096605 0.804884
vt 0.082961 1.125508
vt 0.046456 1.156401
vt 0.021039 0.717274
vt 0.045351 0.628608
vt 0.946093 0.018441
vt 0.987538 -0.025199
vt 0.991751 0.126196
vt 0.972104 0.215405
vt 0.746242 0.028215
vt 0.786423 -0.030481
vt 0.789749 0.126070
vt 0.768096 0.222156
vt 0.791922 0.465123
vt 0.527742 0.739892
vt 0.551762 0.655729
vt 0.573359 0.737183
vt 0.547988 0.984187
vt 0.499474 0.973808
vt 0.502800 0.813709
vt 0.245050 -0.463525
vt 0.248370 -0.319290
vt 0.643561 0.618041
vt 0.695898 0.468716
vt 0.668995 0.699088
vt 0.951157 0.299393
vt 0.924639 0.213902
vt 0.684015 1.054613
vt 0.744369 1.190728
vt 0.737646 1.344841
vt 0.623289 1.358531
vt 0.643035 1.067136
vt 0.951380 0.659525
vt 0.893143 0.968090
vt 0.842483 0.901767
vt 0.746396 0.473081
vt 0.526441 1.369195
vt 0.539241 1.221319
vt 0.603263 1.061436
vt 0.287242 0.696320
vt 0.311665 0.799832
vt 0.297709 1.129164
vt 0.261127 1.149205
vt 0.356089 -0.155459
vt 0.315211 -0.153242
vt 0.458985 -0.255670
vt 0.395620 -0.134373
vt 0.308056 0.460706
vt 0.329932 0.219725
vt 0.353407 0.474150
vt 0.487546 -0.198078
vt 0.453638 -0.027433
vt 0.402461 -0.015762
vt 0.884079 1.094520
vt 0.842566 1.102021
vt 0.643993 0.884901
vt 0.692492 0.940691
vt 0.503590 0.472727
vt 0.508941 -0.118198
vt 0.831785 -0.291419
vt 0.906872 -0.151994
vt 0.900516 -0.031895
vt 0.776646 -0.166593
vt 0.799862 -0.238946
vt 0.455935 0.915654
vt 0.490290 1.114751
vt 0.455613 1.136758
vt 0.512169 1.185533
vt 0.451353 1.318303
vt 0.261219 1.369572
vt 0.320794 1.226359
vt 0.354327 1.391916
vt 0.355674 1.439761
vt 0.266893 1.458275
vt 0.444568 1.416769
vt 0.382942 1.434124
vt 0.354993 1.292353
vt 0.354641 0.031058
vt 0.405116 0.131087
vt 0.406579 0.467572
vt 1.009981 1.138077
vt 0.997567 0.821478
vt 1.021039 0.717274
vt 1.046456 1.156401
vt 0.420086 1.117798
vt 0.411028 0.973048
vt 0.597240 0.475340
vt 0.546572 -0.125509
vt 0.596811 0.947482
vt 0.595518 0.801954
vt 0.842941 1.383154
vt 0.744228 0.967664
vt 0.794954 0.954067
vt 0.802905 1.081062
vt 0.776901 1.147213
vt 0.844416 1.268815
vt 0.956178 1.350026
vt 0.958827 1.404852
vt 1.045121 0.289776
vt 1.045351 0.628608
vt 0.997123 0.468478
vt 1.382942 1.434124
vt 1.064310 1.441249
vt 0.769007 0.731202
vt 0.457792 0.460349
vt 1.051271 1.350230
vt 0.985617 1.217963
vt 0.051271 1.350230
vt 0.161282 1.407122
vt 0.167203 1.454213
vt 0.064310 1.441249
vt 0.158095 1.297573
vt 0.197688 1.219197
vt 0.332963 0.734081
vt 0.479511 0.712855
vt 0.942768 -0.169787
vt 1.047567 -0.036520
vt 1.095573 -0.255703
vt 1.120133 -0.176192
vt 0.045121 0.289776
vt 0.120133 -0.176192
vt 0.816041 0.705514
vt 0.792554 0.802350
vt 0.715062 -0.147415
vt 0.706641 -0.005049
vt 0.974502 0.747383
vt 0.407927 0.812076
vt 0.307197 -0.036587
vt 0.358046 0.996569
vt 0.282388 0.182549
vt 0.952520 1.263844
vt 0.948573 1.003841
vt 0.305363 0.114011
vt 0.745071 -0.183360
vt 1.012402 -0.221371
vt 0.979073 -0.149415
vt 1.060822 -0.306302
vt 0.095573 -0.255703
vt 0.060822 -0.306302
vt 0.047567 -0.036520
vt 0.012402 -0.221371
vn -0.0283 -0.9903 -0.1358
vn 0.2689 -0.9506 0.1550
vn -0.0662 -0.8334 0.5487
vn -0.2571 -0.8343 0.4877
vn 0.5388 -0.7011 0.4671
vn 0.0205 -0.6589 0.7519
vn -0.2598 -0.6482 0.7158
vn 0.7385 -0.0791 0.6696
vn 0.6684 -0.2712 0.6926
vn 0.8124 -0.2396 0.5316
vn 0.8837 -0.0682 0.4631
vn 0.8435 -0.5132 0.1585
vn 0.9764 -0.2160 0.0023
vn -0.4332 -0.7946 0.4253
vn -0.4585 -0.8870 -0.0540
vn -0.3830 -0.7609 -0.5236
vn -0.0920 -0.7766 -0.6232
vn -0.7511 -0.6512 -0.1082
vn -0.5567 -0.5132 -0.6532
vn -0.3236 -0.4711 -0.8206
vn 0.1958 -0.7211 -0.6646
vn 0.3515 -0.7796 -0.5183
vn 0.6750 0.0516 0.7360
vn 0.8813 0.0421 0.4706
vn 0.7327 0.1256 0.6688
vn 0.6783 0.2642 0.6856
vn 0.4128 0.3735 0.8307
vn 0.2981 0.0892 0.9503
vn 0.5368 -0.0385 0.8428
vn -0.3616 -0.2839 0.8881
vn 0.1654 -0.3846 0.9081
vn 0.2274 -0.2479 0.9417
vn -0.1603 -0.1158 0.9802
vn -0.9540 -0.1427 -0.2637
vn -0.9169 -0.2222 0.3316
vn -0.9228 -0.0609 0.3804
vn -1.0000 0.0024 -0.0070
vn -0.9496 0.0023 0.3132
vn -0.1510 -0.0810 -0.9852
vn -0.3024 -0.1354 -0.9435
vn -0.5421 -0.0392 -0.8394
vn -0.4368 0.2401 -0.8669
vn -0.0156 0.1247 -0.9920
vn -0.0201 -0.0573 -0.9981
vn 0.4894 -0.8111 -0.3202
vn 0.6752 -0.6710 -0.3063
vn -0.8428 -0.0475 -0.5360
vn -0.8904 -0.0312 -0.4540
vn -0.9009 0.0151 -0.4336
vn -0.5784 -0.0080 0.8156
vn -0.7067 -0.0404 0.7063
vn -0.7759 0.4898 -0.3976
vn -0.7464 0.6302 -0.2138
vn -0.6548 0.7305 -0.1939
vn -0.6052 0.7351 -0.3053
vn -0.7418 0.5046 -0.4417
vn -0.5900 0.0244 0.8070
vn -0.7079 0.2139 0.6731
vn -0.8182 0.1454 0.5561
vn -0.9831 0.0192 -0.1818
vn -0.5127 0.7490 -0.4197
vn -0.5491 0.6299 -0.5493
vn -0.7109 0.4796 -0.5144
vn 0.9952 0.0589 0.0775
vn 0.9883 0.0721 -0.1346
vn 0.9832 0.1395 -0.1171
vn 0.9788 0.1602 0.1274
vn 0.5576 -0.5152 -0.6508
vn 0.6925 -0.5004 -0.5196
vn 0.2219 -0.5947 -0.7726
vn 0.4454 -0.4747 -0.7591
vn 0.8827 0.0771 -0.4634
vn 0.7564 0.0530 -0.6520
vn 0.6633 -0.0072 -0.7483
vn -0.0941 -0.4105 -0.9070
vn 0.0923 -0.2039 -0.9746
vn 0.4571 -0.2012 -0.8664
vn -0.6928 0.4498 0.5636
vn -0.7727 0.4699 0.4267
vn -0.8326 0.2008 -0.5162
vn -0.8791 0.2333 -0.4156
vn 0.0179 -0.1328 -0.9910
vn -0.3266 -0.2138 -0.9207
vn -0.5897 -0.6210 0.5163
vn -0.5514 -0.5032 0.6654
vn -0.6759 -0.2591 0.6899
vn -0.8700 -0.4190 0.2598
vn -0.7617 -0.5250 0.3797
vn 0.3395 0.0007 -0.9406
vn 0.0206 0.3460 -0.9380
vn 0.2803 0.3858 -0.8789
vn -0.2793 0.5416 -0.7928
vn 0.0360 0.6888 -0.7241
vn 0.7953 0.6062 0.0057
vn 0.8802 0.3234 -0.3473
vn 0.4507 0.7439 -0.4934
vn 0.1405 0.9337 -0.3294
vn 0.2103 0.9754 -0.0656
vn -0.2293 0.8760 -0.4242
vn -0.3469 0.9316 -0.1086
vn 0.6303 0.4899 -0.6022
vn 0.6597 -0.1276 -0.7406
vn 0.4392 0.0271 -0.8979
vn 0.5130 -0.0372 -0.8575
vn 0.0768 0.3432 0.9361
vn 0.0416 0.2083 0.9771
vn 0.5235 0.3234 -0.7882
vn 0.5843 0.0739 -0.8081
vn -0.6377 -0.1444 -0.7566
vn -0.5041 -0.2552 -0.8251
vn -0.7262 0.2518 -0.6397
vn -0.7460 0.0412 -0.6647
vn -0.5782 0.8148 0.0411
vn -0.9479 0.2814 -0.1493
vn -0.9263 0.2622 0.2704
vn -0.8540 0.4382 0.2802
vn -0.8281 0.5598 0.0302
vn -0.7025 0.6702 0.2391
vn -0.4487 0.7477 0.4894
vn -0.4215 0.8468 0.3243
vn 0.5234 -0.1332 0.8416
vn -0.0088 -0.0473 0.9988
vn -0.1455 0.9339 0.3264
vn -0.9988 0.0303 -0.0372
vn 0.3460 -0.0620 -0.9362
vn 0.1759 0.6891 0.7029
vn -0.2084 0.5363 0.8179
vn 0.5486 0.7104 0.4407
vn 0.1857 0.9584 0.2168
vn 0.7493 0.3821 0.5408
vn 0.9058 0.2281 0.3570
vn 0.8902 0.0005 -0.4555
vn 0.2390 -0.1339 -0.9617
vn -0.2324 -0.5786 0.7818
vn 0.3499 -0.3501 0.8689
vn 0.3377 -0.4030 0.8506
vn 0.5701 -0.2351 0.7872
vn -0.8838 0.0092 0.4677
vn -0.9565 0.1112 0.2697
vn -0.7093 -0.2913 -0.6419
vn -0.7261 -0.1901 -0.6607
vn -0.3206 0.0906 0.9428
vn 0.5838 -0.0993 -0.8058
vn 0.8379 -0.2582 -0.4809
vn 0.8333 0.1155 -0.5406
vn 0.9956 0.0522 -0.0769
vn -0.4946 0.6369 0.5914
vn -0.4429 0.2785 0.8522
vn 0.8904 -0.0422 -0.4531
vn -0.8766 -0.4202 -0.2343
vn 0.0750 -0.5190 0.8514
vn 0.1033 -0.5294 0.8420
vn 0.0657 -0.5104 0.8574
usemtl マテリアル
s 1
f 1/1/1 56/2/2 100/3/3 32/4/4
f 11/5/5 98/6/6 100/7/3 56/8/2
f 10/9/7 32/4/4 100/3/3 98/10/6
f 2/11/8 33/12/9 101/13/10 35/14/11
f 11/5/5 96/15/12 101/13/10 33/12/9
f 13/16/13 35/14/11 101/13/10 96/15/12
f 1/1/1 32/4/4 102/17/14 37/18/15
f 1/1/1 37/18/15 103/19/16 39/20/17
f 14/21/18 94/22/19 103/19/16 37/18/15
f 15/23/20 39/20/17 103/19/16 94/22/19
f 1/1/1 39/20/17 104/24/21 58/25/22
f 43/26/23 2/11/8 35/14/11 90/27/24 136/28/25
f 43/26/23 136/28/25 109/29/26 50/30/27 64/31/28 138/32/29
f 3/33/30 34/34/31 105/35/32 42/36/33
f 4/37/34 38/38/35 106/39/36 44/40/37
f 19/41/38 44/40/37 106/39/36
f 85/42/39 131/43/40 86/44/41 26/45/42 49/46/43 130/47/44
f 11/5/5 56/8/2 150/48/45 149/49/46 96/15/12
f 137/50/47 21/51/48 45/52/49
f 3/33/30 42/36/33 108/53/50 66/54/51
f 111/55/52 121/56/53 120/57/54 73/58/55 53/59/56
f 108/53/50 134/60/57 47/61/58 6/62/59 66/54/51
f 19/41/38 87/63/60 44/40/37
f 117/64/61 118/65/62 119/66/63 53/59/56 73/58/55
f 41/67/64 128/68/65 113/69/66 71/70/67
f 149/49/46 150/48/45 58/25/22 36/71/68 148/72/69
f 104/24/21 142/73/70 141/74/71 36/71/68 58/25/22
f 17/75/72 63/76/73 84/77/74
f 141/74/71 142/73/70 93/78/75 16/79/76 40/80/77
f 6/62/59 47/61/58 110/81/78 52/82/79
f 7/83/80 48/84/81 111/55/52 53/59/56
f 23/85/82 16/79/76 93/78/75 143/86/83 131/43/40 85/42/39
f 146/87/84 147/88/85 60/89/86 38/38/35 145/90/87 95/91/88
f 8/92/89 49/46/43 112/93/90 54/94/91
f 26/45/42 77/95/92 112/93/90 49/46/43
f 31/96/93 54/94/91 112/93/90 77/95/92
f 29/97/94 71/70/67 113/69/66 76/98/95
f 29/97/94 75/99/96 114/100/97 51/101/98
f 31/96/93 74/102/99 114/100/97 75/99/96
f 9/103/100 51/101/98 114/100/97 74/102/99
f 29/97/94 76/98/95 115/104/101 75/99/96
f 84/77/74 63/76/73 5/105/102 40/80/77 107/106/103 22/107/104
f 125/108/105 135/109/106 64/110/28 50/111/27
f 8/92/89 54/94/91 116/112/107 69/113/108
f 20/114/109 86/44/41 131/43/40 143/86/83 61/115/110
f 9/103/100 74/102/99 117/64/61 73/58/55
f 7/83/80 53/59/56 119/66/63 68/116/111
f 132/117/112 137/50/47 45/52/49 48/84/81 7/83/80 68/116/111
f 9/103/100 73/58/55 120/57/54 72/118/113
f 25/119/114 67/120/115 122/121/116 78/122/117
f 6/62/59 52/82/79 122/121/116 67/120/115
f 30/123/118 78/122/117 122/121/116 52/82/79
f 30/123/118 79/124/119 123/125/120 72/118/113
f 105/35/32 139/126/121 138/127/29 64/110/28 18/128/122 42/36/33
f 9/129/100 72/118/113 123/125/120 70/130/123
f 87/63/60 88/131/124 25/119/114 48/84/81 45/52/49 21/51/48 4/37/34 44/40/37
f 16/79/76 23/85/82 91/132/125 107/106/103 40/80/77
f 28/133/126 80/134/127 125/108/105 50/111/27
f 28/135/126 81/136/128 126/137/129 70/138/123
f 29/97/94 51/101/98 126/137/129 81/136/128
f 9/103/100 70/138/123 126/137/129 51/101/98
f 29/97/94 81/136/128 127/139/130 82/140/131
f 29/97/94 82/140/131 71/70/67
f 17/75/72 83/141/132 128/68/65 41/67/64
f 120/57/54 121/56/53 78/122/117 30/123/118 72/118/113
f 23/85/82 85/42/39 130/47/44 46/142/133
f 10/9/7 55/143/134 147/88/85 146/87/84 102/17/14 32/4/4
f 8/92/89 46/142/133 130/47/44 49/46/43
f 139/126/121 105/35/32 34/34/31 12/144/135 99/145/136 153/146/137
f 139/147/121 153/148/137 33/12/9 2/11/8 43/26/23 138/32/29
f 26/45/42 86/44/41 132/117/112 68/116/111
f 19/41/38 88/131/124 87/63/60
f 19/41/38 65/149/138 133/150/139 88/131/124
f 6/62/59 67/120/115 133/150/139 65/149/138
f 25/119/114 88/131/124 133/150/139 67/120/115
f 109/29/26 127/139/130 81/136/128 28/135/126 50/30/27
f 20/114/109 61/115/110 15/23/20 94/22/19 144/151/140 62/152/141
f 18/128/122 64/110/28 135/109/106 89/153/142
f 22/107/104 91/132/125 46/142/133 8/92/89 69/113/108 129/154/143
f 13/16/13 96/15/12 149/49/46 148/72/69 57/155/144
f 31/96/93 77/95/92 118/65/62 117/64/61 74/102/99
f 23/85/82 46/142/133 91/132/125
f 102/17/14 146/87/84 95/91/88 14/21/18 37/18/15
f 27/156/145 69/113/108 116/112/107 115/104/101 76/98/95
f 107/106/103 91/132/125 22/107/104
f 41/67/64 92/157/146 17/75/72
f 20/114/109 62/152/141 4/37/34 21/51/48 137/50/47 132/117/112 86/44/41
f 79/124/119 124/158/147 80/134/127 28/133/126 70/130/123 123/125/120
f 6/62/59 65/149/138 19/41/38 106/39/36 38/38/35 60/89/86 66/54/51
f 25/119/114 78/122/117 121/56/53 111/55/52 48/84/81
f 3/33/30 66/54/51 60/89/86
f 84/77/74 129/154/143 69/113/108 27/156/145 83/141/132 17/75/72
f 24/159/148 89/153/142 135/109/106 125/108/105 80/134/127
f 71/70/67 82/140/131 90/27/24 35/14/11 13/16/13 92/157/146 41/67/64
f 13/16/13 57/155/144 140/160/149 92/157/146
f 5/105/102 63/76/73 140/160/149 57/155/144
f 17/75/72 92/157/146 140/160/149 63/76/73
f 82/140/131 127/139/130 109/29/26 136/28/25 90/27/24
f 5/105/102 36/71/68 141/74/71 40/80/77
f 15/23/20 61/115/110 143/86/83 93/78/75
f 15/23/20 93/78/75 142/73/70 104/24/21 39/20/17
f 47/61/58 134/60/57 89/153/142 24/159/148
f 4/37/34 62/152/141 144/151/140 59/161/150
f 14/21/18 95/91/88 145/90/87 59/161/150
f 24/159/148 80/134/127 124/158/147 110/81/78 47/61/58
f 4/37/34 59/161/150 145/90/87 38/38/35
f 113/69/66 128/68/65 83/141/132 27/156/145 76/98/95
f 110/81/78 124/158/147 79/124/119 30/123/118 52/82/79
f 3/33/30 60/89/86 147/88/85 55/143/134
f 26/45/42 68/116/111 119/66/63 118/65/62 77/95/92
f 18/128/122 89/153/142 134/60/57 108/53/50 42/36/33
f 5/105/102 57/155/144 148/72/69 36/71/68
f 22/107/104 129/154/143 84/77/74
f 1/1/1 58/25/22 150/48/45 56/8/2
f 10/9/7 97/162/151 151/163/152 55/143/134
f 12/144/135 34/34/31 151/163/152 97/162/151
f 3/33/30 55/143/134 151/163/152 34/34/31
f 10/9/7 98/10/6 152/164/153 97/162/151
f 11/5/5 99/165/136 152/166/153 98/6/6
f 12/167/135 97/168/151 152/166/153 99/165/136
f 11/5/5 33/12/9 153/148/137 99/165/136
f 115/104/101 116/112/107 54/94/91 31/96/93 75/99/96
f 14/21/18 59/161/150 144/151/140 94/22/19
