# Blender v2.80 (sub 60) OBJ File: 'untitled.blend'
# www.blender.org
mtllib crystal.mtl
o Crystal03_Untitled.014
v -1.434489 -2.083208 -0.793132
v 1.122441 -2.464525 -0.787608
v -1.476966 -2.299037 0.409352
v -0.091434 -2.503381 -1.414409
v -0.104304 -3.594365 0.030140
v 0.027719 -3.622787 0.030705
v 0.141759 -3.588173 0.023297
v 0.897927 -2.554682 0.423558
v 1.041177 -2.443810 0.359440
v 1.034329 -2.258547 0.535550
v 0.932702 -2.358159 0.612691
v -0.475589 -2.699358 0.933598
v -0.132857 -2.420875 1.055356
v -0.903525 -2.368818 1.064839
v -0.634455 -1.776240 1.277165
v -0.073024 3.182701 -0.016261
v -0.039626 3.073895 0.278265
v -0.114333 3.120487 -0.175517
v -1.241366 2.193814 -0.903895
v -1.190028 2.063626 -1.063746
v -1.387904 1.829842 -1.014796
v -1.417300 2.066688 -0.692149
v -1.499331 1.614179 0.398778
v -0.608664 1.622993 1.313230
v 1.000707 2.020925 0.883878
v 0.845792 2.225299 0.669774
v 1.133138 2.063869 0.407872
v 1.220483 1.797848 0.823171
v 1.167665 2.094575 -0.392359
v 0.864560 2.086168 -0.920496
v 1.123593 1.943271 -0.798487
v 0.378366 2.079223 -1.155032
v -0.107161 1.956557 -1.402773
vt 0.307318 0.303262
vt 0.292464 0.303188
vt 0.304986 0.081828
vt 0.365322 0.097992
vt 0.351736 0.287956
vt 0.332311 0.298393
vt 0.394042 0.292890
vt 0.393343 0.288197
vt 0.402753 0.274027
vt 0.409016 0.287575
vt 0.424683 0.120657
vt 0.397572 0.012046
vt 0.411770 0.018428
vt 0.475496 0.102982
vt 0.242436 0.090873
vt 0.249311 0.092725
vt 0.244087 0.104842
vt 0.238515 0.102338
vt 0.375720 0.013073
vt 0.228019 0.025976
vt 0.277697 0.326778
vt 0.236052 0.304247
vt 0.223955 0.287504
vt 0.174653 0.080795
vt 0.187333 0.096384
vt 0.160707 0.122352
vt 0.153794 0.092032
vt 0.215544 0.025095
vt 0.216196 0.294332
vt 0.146216 0.271585
vt 0.114657 0.080245
vt 0.202456 0.021834
vt 0.214406 0.306580
vt 0.172790 0.388789
vt 0.171650 0.364282
vt 0.373650 0.365487
vt 0.369572 0.355565
vt 0.454738 0.295626
vt 0.086384 0.281182
vn 0.4495 0.0018 -0.8933
vn -0.7606 0.4491 -0.4689
vn -0.4449 -0.7127 -0.5423
vn -0.7002 -0.6980 -0.1500
vn 0.7146 -0.5102 0.4786
vn 0.3217 -0.7300 -0.6030
vn 0.7688 -0.6323 0.0954
vn 0.9998 -0.0174 -0.0020
vn -0.0122 -0.3506 0.9364
vn 0.3283 -0.5935 0.7348
vn 0.3308 -0.0431 0.9427
vn -0.5005 -0.7277 0.4690
vn 0.6521 0.7483 0.1215
vn 0.1169 0.5794 0.8066
vn 0.3379 0.7393 -0.5825
vn -0.0606 0.7262 -0.6849
vn -0.3595 -0.0204 -0.9329
vn -0.6757 0.7198 0.1594
vn -0.9982 0.0008 -0.0594
vn -0.7184 0.0037 0.6957
vn -0.5900 0.6315 0.5032
vn 0.6813 0.6875 0.2516
vn 0.5632 0.7553 -0.3352
usemtl CrystalOmniSHD_Trigonal
s 1
f 30/1/1 31/2/1 2/3/1 4/4/1 33/5/1 32/6/1
f 19/7/2 20/8/2 21/9/2 22/10/2
f 1/11/3 4/4/3 6/12/3 5/13/3
f 3/14/4 1/11/4 5/13/4
f 8/15/5 9/16/5 10/17/5 11/18/5
f 4/4/6 2/3/6 7/19/6 6/12/6
f 2/3/7 9/16/7 8/15/7 7/20/7
f 31/2/8 29/21/8 27/22/8 28/23/8 10/17/8 9/16/8 2/3/8
f 12/24/9 13/25/9 15/26/9 14/27/9
f 8/15/10 11/18/10 13/25/10 12/24/10 6/28/10 7/20/10
f 28/23/11 25/29/11 24/30/11 15/26/11 13/25/11 11/18/11 10/17/11
f 12/24/12 14/27/12 3/31/12 5/32/12 6/28/12
f 26/33/13 27/22/13 29/21/13 16/34/13 17/35/13
f 24/30/14 25/29/14 26/33/14 17/35/14
f 16/36/15 30/1/15 32/6/15 18/37/15
f 20/8/16 19/7/16 18/37/16 32/6/16 33/5/16
f 20/8/17 33/5/17 4/4/17 1/11/17 21/9/17
f 19/7/18 22/10/18 23/38/18 16/36/18 18/37/18
f 22/10/19 21/9/19 1/11/19 3/14/19 23/38/19
f 23/39/20 3/31/20 14/27/20 15/26/20 24/30/20
f 23/39/21 24/30/21 17/35/21 16/34/21
f 28/23/22 27/22/22 26/33/22 25/29/22
f 16/36/23 29/21/23 31/2/23 30/1/23
o Crystal02_Untitled.012
v -1.180854 -4.678480 -0.924292
v 1.132630 -4.549486 -0.867643
v -1.305175 -4.276330 0.278193
v 0.198089 -4.613622 -1.556555
v -0.261240 -5.639470 -0.094252
v 0.097928 -5.787339 -0.092489
v 0.408175 -5.607259 -0.115828
v 1.001538 -4.698301 0.372026
v 1.125182 -4.515294 0.307909
v 1.119273 -4.209497 0.484011
v 1.031552 -4.373919 0.561151
v -0.032885 -4.937104 0.824686
v 0.250596 -4.477437 1.052515
v -0.085470 -3.652213 1.266909
v -0.260104 -4.595304 1.008509
v -0.469559 -4.391511 0.993296
v -0.114387 -3.413398 1.274325
v -0.133906 4.082769 -0.100682
v 0.023101 3.892915 0.147106
v -0.322448 3.871757 -0.656865
v -1.014163 3.139601 -1.035054
v -0.969850 2.924711 -1.194905
v -1.140644 2.471936 -1.145955
v -1.166017 2.929765 -0.823308
v -1.074584 3.363804 0.126155
v -1.227471 2.950548 -0.187039
v -1.321779 2.308471 0.387515
v -1.063323 2.977694 0.743869
v -0.307482 2.984158 1.240123
v -0.189850 3.155299 1.157695
v 0.060214 2.989703 1.190425
v -0.203249 2.810402 1.292590
v 0.909453 2.997824 0.862666
v 0.956540 3.191571 0.618236
v 1.138562 2.988368 0.117572
v 1.279948 2.408411 0.771632
v 1.065154 2.975795 -0.523518
v 0.561068 3.367798 -0.632344
v 0.803534 2.961919 -1.051656
v 1.027114 2.841373 -0.929646
v 0.383883 2.950455 -1.286191
v -0.237855 3.598614 -0.909489
v -0.456044 2.932314 -1.417470
v -0.035193 2.747983 -1.533932
vt 0.931021 0.874255
vt 0.923428 0.864566
vt 0.897550 0.550369
vt 0.943943 0.534364
vt 0.975421 0.871353
vt 0.949293 0.878429
vt 0.667373 0.879037
vt 0.659510 0.869587
vt 0.664727 0.851643
vt 0.677956 0.869122
vt 0.681211 0.544790
vt 0.618757 0.529615
vt 0.686987 0.462671
vt 0.698007 0.483767
vt 0.728006 0.557368
vt 0.848596 0.544255
vt 0.851151 0.552500
vt 0.846130 0.563270
vt 0.842449 0.554543
vt 0.867662 0.495978
vt 0.863742 0.478779
vt 0.906655 0.869765
vt 0.877358 0.868095
vt 0.853115 0.846292
vt 0.780624 0.528040
vt 0.807145 0.511379
vt 0.804881 0.542757
vt 0.787962 0.578485
vt 0.844157 0.869184
vt 0.804359 0.881935
vt 0.788747 0.870726
vt 0.788431 0.588919
vt 0.760907 0.496607
vt 0.771538 0.541938
vt 0.854874 0.875176
vt 0.914595 0.899367
vt 0.883450 0.957808
vt 0.858020 0.942224
vt 0.791754 0.899475
vt 0.947298 0.934294
vt 0.926364 0.955468
vt 0.658373 0.921920
vt 0.633249 0.876440
vt 0.681220 0.930311
vt 0.613653 0.867073
vt 0.746295 0.871739
vt 0.721370 0.886245
vt 0.706502 0.868748
vt 0.729955 0.841993
vt 0.713883 0.945026
vt 0.785459 0.884076
vt 0.737729 0.945411
vt 0.989577 0.898267
vn 0.5422 0.0107 -0.8402
vn -0.8575 0.2382 -0.4559
vn -0.2564 -0.7516 -0.6078
vn -0.7699 -0.6249 0.1294
vn 0.8238 -0.3075 0.4763
vn 0.4352 -0.7103 -0.5533
vn 0.8319 -0.5545 0.0214
vn 0.9969 0.0013 -0.0784
vn -0.0063 -0.3257 0.9455
vn 0.4403 -0.6031 0.6651
vn 0.4311 -0.0170 0.9022
vn -0.5241 -0.6198 0.5841
vn -0.3393 -0.1664 0.9259
vn 0.6431 0.7628 -0.0681
vn 0.2661 0.7335 0.6255
vn 0.4053 0.7403 -0.5364
vn -0.2669 0.6153 -0.7417
vn -0.3768 -0.0183 -0.9261
vn -0.9515 0.2625 0.1601
vn -0.7182 0.6821 -0.1377
vn -0.9938 0.0030 -0.1109
vn -0.6291 -0.0191 0.7771
vn -0.3835 0.7514 0.5369
vn 0.1198 0.3576 0.9262
vn 0.8725 0.4118 0.2631
vn 0.6113 0.7230 -0.3218
vn 0.1102 0.6051 -0.7885
usemtl CrystalOmniSHD_Trigonal
s 1
f 72/40/24 73/41/24 35/42/24 37/43/24 77/44/24 74/45/24
f 54/46/25 55/47/25 56/48/25 57/49/25
f 34/50/26 37/51/26 39/52/26 38/53/26
f 36/54/27 34/50/27 38/53/27
f 41/55/28 42/56/28 43/57/28 44/58/28
f 37/43/29 35/42/29 40/59/29 39/60/29
f 35/42/30 42/56/30 41/55/30 40/59/30
f 73/41/31 70/61/31 68/62/31 69/63/31 43/57/31 42/56/31 35/42/31
f 48/64/32 45/65/32 46/66/32 47/67/32
f 41/55/33 44/58/33 46/66/33 45/65/33 39/60/33 40/59/33
f 69/63/34 66/68/34 64/69/34 65/70/34 50/71/34 47/67/34 46/66/34 44/58/34 43/57/34
f 45/72/35 48/64/35 49/73/35 36/54/35 38/53/35 39/52/35
f 50/71/36 49/73/36 48/64/36 47/67/36
f 67/74/37 68/62/37 70/61/37 71/75/37 51/76/37 52/77/37
f 63/78/38 64/69/38 66/68/38 67/74/38 52/77/38
f 71/75/39 72/40/39 74/45/39 75/79/39 53/80/39 51/76/39
f 75/81/40 76/82/40 55/47/40 54/46/40 53/83/40
f 76/82/41 77/84/41 37/51/41 34/50/41 56/48/41 55/47/41
f 61/85/42 58/86/42 59/87/42 60/88/42
f 54/46/43 57/49/43 59/87/43 58/86/43 51/89/43 53/83/43
f 57/49/44 56/48/44 34/50/44 36/54/44 60/88/44 59/87/44
f 61/85/45 60/88/45 36/54/45 49/73/45 50/71/45 65/70/45 62/90/45
f 58/86/46 61/85/46 62/90/46 63/78/46 52/91/46 51/89/46
f 63/78/47 62/90/47 65/70/47 64/69/47
f 69/63/48 68/62/48 67/74/48 66/68/48
f 71/75/49 70/61/49 73/41/49 72/40/49
f 77/44/50 76/92/50 75/79/50 74/45/50
o Crystal01_Untitled.011
v -0.899665 4.670766 -0.932153
v -0.767388 4.541771 0.909260
v 0.609784 4.268617 -0.876049
v -1.350253 4.605909 0.118568
v -0.113039 5.631757 -0.270059
v -0.111544 5.779624 0.033824
v -0.131293 5.599545 0.296316
v 0.281469 4.690588 0.798347
v 0.227219 4.507581 0.902959
v 0.376222 4.201784 0.897959
v 0.441487 4.366204 0.823741
v 0.664456 4.929389 -0.076854
v 0.857211 4.469721 0.162992
v 1.038606 3.644499 -0.121345
v 0.819982 4.587591 -0.269099
v 0.807114 4.383798 -0.446314
v 1.044884 3.405684 -0.145812
v -0.118475 -4.741909 -0.162329
v 0.091171 -4.412648 -0.029488
v -0.589053 -4.375953 -0.321849
v -0.993382 -3.106179 -0.791120
v -1.128625 -2.733495 -0.753628
v -1.087204 -1.948253 -0.898133
v -0.814225 -2.742263 -0.919597
v 0.481154 -3.495013 -0.680952
v 0.101754 -2.778310 -0.887831
v 0.702283 -1.664759 -0.890097
v 0.966298 -2.830900 -0.402665
v 1.015945 -2.836597 -0.309186
v 0.946203 -3.133406 -0.209659
v 0.973898 -2.846213 0.001914
v 1.060334 -2.535253 -0.220996
v 0.696590 -2.860297 0.720434
v 0.489785 -3.196312 0.760273
v 0.066182 -2.843898 0.914278
v 0.619569 -1.838082 1.033902
v -0.476231 -2.822091 0.852170
v -0.568304 -3.501939 0.425675
v -0.923076 -2.798028 0.630819
v -0.819847 -2.588966 0.819985
v -1.121509 -2.778145 0.275762
v -0.802791 -3.902242 -0.250276
v -1.232580 -2.746684 -0.434881
v -1.331119 -2.426999 -0.078808
vt 0.056170 0.543482
vt 0.064575 0.556660
vt 0.088472 0.901575
vt 0.043814 0.915786
vt 0.012525 0.558604
vt 0.037688 0.540933
vt 0.314692 0.527478
vt 0.324105 0.546603
vt 0.316986 0.583821
vt 0.303996 0.545811
vt 0.298279 0.903479
vt 0.349113 0.917582
vt 0.277482 0.980151
vt 0.270325 0.960650
vt 0.228940 0.888385
vt 0.135811 0.909686
vt 0.133824 0.900255
vt 0.139645 0.887862
vt 0.143401 0.897642
vt 0.114709 0.960196
vt 0.116755 0.976606
vt 0.081185 0.545448
vt 0.109565 0.545526
vt 0.134943 0.591851
vt 0.207810 0.911601
vt 0.212571 0.938322
vt 0.180887 0.910610
vt 0.194237 0.865208
vt 0.171479 0.943675
vt 0.144303 0.543894
vt 0.184033 0.535964
vt 0.197839 0.553568
vt 0.194300 0.852245
vt 0.211326 0.899484
vt 0.132749 0.529386
vt 0.074217 0.501942
vt 0.106770 0.416168
vt 0.124729 0.439226
vt 0.194132 0.513064
vt 0.044420 0.461519
vt 0.066236 0.430375
vt 0.317221 0.474727
vt 0.341915 0.543751
vt 0.296122 0.453378
vt 0.359687 0.561008
vt 0.206188 0.537488
vt 0.236963 0.504596
vt 0.257223 0.542643
vt 0.229497 0.597580
vt 0.269676 0.431296
vt 0.199311 0.534822
vt 0.247618 0.440093
vt 0.000447 0.529325
vn -0.8407 -0.0093 0.5414
vn -0.4661 -0.1188 -0.8767
vn -0.6634 0.7005 -0.2629
vn 0.1574 0.4697 -0.8687
vn 0.4828 0.2638 0.8351
vn -0.5978 0.6493 0.4702
vn 0.0224 0.4911 0.8708
vn -0.0798 -0.0011 0.9968
vn 0.9600 0.2798 -0.0064
vn 0.7024 0.5389 0.4650
vn 0.9044 0.0148 0.4264
vn 0.6587 0.5820 -0.4768
vn 0.9295 0.1414 -0.3406
vn -0.0913 -0.4988 0.8619
vn 0.8143 -0.4658 0.3464
vn -0.7029 -0.4732 0.5311
vn -0.9009 -0.3619 -0.2397
vn -0.9398 0.0152 -0.3414
vn 0.4761 -0.1564 -0.8654
vn -0.0070 -0.3423 -0.9396
vn 0.0188 -0.0007 -0.9998
vn 0.8775 0.0149 -0.4793
vn 0.8008 -0.5059 -0.3207
vn 0.9749 -0.1836 0.1261
vn 0.2819 -0.2153 0.9350
vn -0.4149 -0.4547 0.7881
vn -0.9286 -0.3476 0.1297
usemtl CrystalOmniSHD_Trigonal
s 1
f 116/93/51 117/94/51 79/95/51 81/96/51 121/97/51 118/98/51
f 98/99/52 99/100/52 100/101/52 101/102/52
f 78/103/53 81/104/53 83/105/53 82/106/53
f 80/107/54 78/103/54 82/106/54
f 85/108/55 86/109/55 87/110/55 88/111/55
f 81/96/56 79/95/56 84/112/56 83/113/56
f 79/95/57 86/109/57 85/108/57 84/112/57
f 117/94/58 114/114/58 112/115/58 113/116/58 87/110/58 86/109/58 79/95/58
f 92/117/59 89/118/59 90/119/59 91/120/59
f 85/108/60 88/111/60 90/119/60 89/121/60 83/113/60 84/112/60
f 113/116/61 110/122/61 108/123/61 109/124/61 94/125/61 91/120/61 90/119/61 88/111/61 87/110/61
f 89/118/62 92/117/62 93/126/62 80/107/62 82/106/62 83/105/62
f 94/125/63 93/126/63 92/117/63 91/120/63
f 111/127/64 112/115/64 114/114/64 115/128/64 95/129/64 96/130/64
f 107/131/65 108/123/65 110/122/65 111/127/65 96/130/65
f 115/128/66 116/93/66 118/98/66 119/132/66 97/133/66 95/129/66
f 119/134/67 120/135/67 99/100/67 98/99/67 97/136/67
f 120/135/68 121/137/68 81/104/68 78/103/68 100/101/68 99/100/68
f 105/138/69 102/139/69 103/140/69 104/141/69
f 98/99/70 101/102/70 103/140/70 102/139/70 95/142/70 97/136/70
f 101/102/71 100/101/71 78/103/71 80/107/71 104/141/71 103/140/71
f 105/138/72 104/141/72 80/107/72 93/126/72 94/125/72 109/124/72 106/143/72
f 102/139/73 105/138/73 106/143/73 107/131/73 96/144/73 95/142/73
f 107/131/74 106/143/74 109/124/74 108/123/74
f 113/116/75 112/115/75 111/127/75 110/122/75
f 115/128/76 114/114/76 117/94/76 116/93/76
f 121/97/77 120/145/77 119/132/77 118/98/77
